<svg width="501" height="117" viewBox="0 0 501 117" fill="none" xmlns="http://www.w3.org/2000/svg">
<g opacity="0.03">
<path fill-rule="evenodd" clip-rule="evenodd" d="M24.3648 78.8096L0.666016 102.508L14.7526 116.593L52.5349 78.8096L14.7526 41.0273L0.666016 55.1124L24.3648 78.8096Z" fill="white"/>
<path fill-rule="evenodd" clip-rule="evenodd" d="M75.9342 78.8096L52.2354 102.508L66.3219 116.593L104.104 78.8096L66.3219 41.0273L52.2354 55.1124L75.9342 78.8096Z" fill="white"/>
<path fill-rule="evenodd" clip-rule="evenodd" d="M158.658 33.6865H158.735C180.477 33.7701 196.529 50.3083 196.529 70.6683V81.9982H145.907C145.885 82.301 145.872 82.6087 145.872 82.9162C145.872 90.4337 152.838 96.5363 161.418 96.5363C166.944 96.5363 171.8 94.0047 174.556 90.1939H196.854C192.206 105.429 177.225 116.593 159.48 116.593C159.229 116.593 158.98 116.59 158.728 116.587L158.735 116.593C153.85 116.593 149.171 115.666 144.852 113.97C134.672 110.153 126.64 102.459 122.902 92.7981C120.487 87.4415 119.135 81.454 119.135 75.14C119.135 67.2928 121.222 59.952 124.85 53.6901C131.169 41.8113 143.904 33.6865 158.573 33.6865H158.658ZM171.272 66.2581H145.872C145.872 59.2485 151.563 53.5592 158.573 53.5592C165.583 53.5592 171.272 59.2485 171.272 66.2581Z" fill="white"/>
<path fill-rule="evenodd" clip-rule="evenodd" d="M436.278 105.536C429.717 112.397 420.942 116.593 411.305 116.593C391.005 116.593 374.523 97.9761 374.523 75.0466C374.523 52.1171 391.005 33.5 411.305 33.5C420.942 33.5 429.717 37.6957 436.278 44.557V43.7463L437.864 34.8991H459.894V115.174H437.864L436.278 106.008V105.536ZM417.724 56.9563C427.091 56.9563 434.695 65.0574 434.695 75.0355C434.695 85.0136 427.091 93.1147 417.724 93.1147C408.358 93.1147 400.754 85.0136 400.754 75.0355C400.754 65.0574 408.358 56.9563 417.724 56.9563Z" fill="white"/>
<path fill-rule="evenodd" clip-rule="evenodd" d="M234.138 44.3665C238.722 37.9421 246.695 33.6865 255.757 33.6865C269.959 33.6865 281.487 44.1378 281.487 57.0103V115.174H256.448V67.8433C256.448 62.5751 251.902 58.299 246.304 58.299C240.706 58.299 236.162 62.5751 236.162 67.8433V115.174H211.12V34.8995C215.882 34.8995 193.08 34.8995 233.321 34.8995L234.138 44.3665Z" fill="white"/>
<path fill-rule="evenodd" clip-rule="evenodd" d="M321.284 63.516L339.253 34.8988H369.818L349.031 68.0035L374.524 115.173H344.211L329.826 88.5575L321.284 101.332V115.173H296.243V0.355469H321.284V63.516Z" fill="white"/>
<path d="M486.33 116.59C494.248 116.59 500.666 110.172 500.666 102.254C500.666 94.3365 494.248 87.918 486.33 87.918C478.412 87.918 471.994 94.3365 471.994 102.254C471.994 110.172 478.412 116.59 486.33 116.59Z" fill="white"/>
</g>
</svg>
