<svg width="120" height="30" viewBox="0 0 120 30" fill="none" xmlns="http://www.w3.org/2000/svg">
<path fill-rule="evenodd" clip-rule="evenodd" d="M6.22018 19.9385L0.588226 25.5704L3.93586 28.9177L12.9147 19.9385L3.93586 10.9596L0.588226 14.3069L6.22018 19.9385Z" fill="#FFD640"/>
<path fill-rule="evenodd" clip-rule="evenodd" d="M18.4755 19.9385L12.8435 25.5704L16.1911 28.9177L25.17 19.9385L16.1911 10.9596L12.8435 14.3069L18.4755 19.9385Z" fill="#FFD640"/>
<path fill-rule="evenodd" clip-rule="evenodd" d="M38.1346 9.21504H38.1529C43.3198 9.23491 47.1346 13.1652 47.1346 18.0037V20.6962H35.1043C35.0991 20.7681 35.0961 20.8412 35.0961 20.9143C35.0961 22.7009 36.7514 24.1511 38.7906 24.1511C40.1036 24.1511 41.2578 23.5495 41.9126 22.6439H47.2118C46.1072 26.2645 42.5469 28.9176 38.3299 28.9176C38.2703 28.9176 38.2111 28.9169 38.1511 28.9161L38.1529 28.9176C36.992 28.9176 35.8799 28.6972 34.8536 28.2943C32.4343 27.3872 30.5256 25.5587 29.6372 23.2627C29.0633 21.9898 28.7421 20.5668 28.7421 19.0663C28.7421 17.2015 29.238 15.457 30.1002 13.9688C31.6018 11.1459 34.6283 9.21504 38.1143 9.21504H38.1346ZM41.1322 16.9556H35.0961C35.0961 15.2898 36.4485 13.9377 38.1143 13.9377C39.7802 13.9377 41.1322 15.2898 41.1322 16.9556Z" fill="#040924"/>
<path fill-rule="evenodd" clip-rule="evenodd" d="M104.11 26.2898C102.551 27.9204 100.466 28.9175 98.1753 28.9175C93.3511 28.9175 89.4343 24.4932 89.4343 19.0441C89.4343 13.595 93.3511 9.17067 98.1753 9.17067C100.466 9.17067 102.551 10.1678 104.11 11.7983V11.6057L104.487 9.50317H109.722V28.5802H104.487L104.11 26.4019V26.2898ZM99.7009 14.745C101.927 14.745 103.734 16.6702 103.734 19.0415C103.734 21.4127 101.927 23.3379 99.7009 23.3379C97.4751 23.3379 95.668 21.4127 95.668 19.0415C95.668 16.6702 97.4751 14.745 99.7009 14.745Z" fill="#040924"/>
<path fill-rule="evenodd" clip-rule="evenodd" d="M56.0721 11.7531C57.1614 10.2264 59.0563 9.21504 61.2097 9.21504C64.5848 9.21504 67.3246 11.6988 67.3246 14.7579V28.5803H61.3739V17.3323C61.3739 16.0803 60.2936 15.0641 58.9633 15.0641C57.633 15.0641 56.553 16.0803 56.553 17.3323V28.5803H50.602V9.5033C51.7337 9.5033 46.3149 9.5033 55.8779 9.5033L56.0721 11.7531Z" fill="#040924"/>
<path fill-rule="evenodd" clip-rule="evenodd" d="M76.7822 16.304L81.0525 9.50323H88.3162L83.3761 17.3705L89.4343 28.5802H82.2306L78.812 22.2551L76.7822 25.2909V28.5802H70.8312V1.29411H76.7822V16.304Z" fill="#040924"/>
<path d="M116.005 28.9176C117.886 28.9176 119.412 27.3922 119.412 25.5106C119.412 23.629 117.886 22.1037 116.005 22.1037C114.123 22.1037 112.598 23.629 112.598 25.5106C112.598 27.3922 114.123 28.9176 116.005 28.9176Z" fill="#040924"/>
</svg>
