<svg width="50" height="50" viewBox="0 0 50 50" fill="none" xmlns="http://www.w3.org/2000/svg">
<path fill-rule="evenodd" clip-rule="evenodd" d="M25.5446 45.1061C25.5446 45.1061 42.2113 32.6061 42.2113 20.1061C42.2113 15.6858 40.4553 11.4466 37.3297 8.32101C34.2041 5.1954 29.9649 3.43945 25.5446 3.43945C21.1243 3.43945 16.8851 5.1954 13.7595 8.32101C10.6339 11.4466 8.87793 15.6858 8.87793 20.1061C8.87793 32.6061 25.5446 45.1061 25.5446 45.1061ZM31.7946 20.1063C31.7946 23.5581 28.9963 26.3563 25.5446 26.3563C22.0928 26.3563 19.2946 23.5581 19.2946 20.1063C19.2946 16.6545 22.0928 13.8563 25.5446 13.8563C28.9963 13.8563 31.7946 16.6545 31.7946 20.1063Z" fill="#FFD640"/>
<path d="M25.5447 26.3564C28.9965 26.3564 31.7947 23.5582 31.7947 20.1064C31.7947 16.6547 28.9965 13.8564 25.5447 13.8564C22.0929 13.8564 19.2947 16.6547 19.2947 20.1064C19.2947 23.5582 22.0929 26.3564 25.5447 26.3564Z" fill="#020617" stroke="#FFD640" stroke-width="1.33333" stroke-linecap="round" stroke-linejoin="round"/>
</svg>
